<svg width="305" height="424" viewBox="0 0 305 424" fill="none" xmlns="http://www.w3.org/2000/svg">
<rect x="115.391" y="40.2477" width="179.204" height="373.077" rx="8.72206" stroke="url(#paint0_linear_5360_845)" stroke-width="1.09026"/>
<g filter="url(#filter0_d_5360_845)">
<rect x="32.3057" y="2.88562" width="166.17" height="55.7799" fill="#FBAB2C"/>
<rect x="30.8629" y="1.44281" width="169.055" height="58.6655" stroke="#000E1F" stroke-width="2.88562"/>
<path d="M56.5667 38.2756V23.1242H61.4472C62.7861 23.1242 63.9898 23.4294 65.0582 24.0399C66.1265 24.6435 66.959 25.5002 67.5556 26.6102C68.1592 27.7133 68.4645 28.9516 68.4714 30.3253V31.0225C68.4714 32.41 68.1766 33.6553 67.5869 34.7583C67.0041 35.8545 66.1786 36.7147 65.1102 37.3391C64.0487 37.9565 62.8624 38.2687 61.5512 38.2756H56.5667ZM60.2192 25.9442V35.466H61.4888C62.5364 35.466 63.3411 35.0948 63.9031 34.3525C64.465 33.6032 64.746 32.4932 64.746 31.0225V30.3669C64.746 28.9031 64.465 27.8 63.9031 27.0577C63.3411 26.3154 62.5225 25.9442 61.4472 25.9442H60.2192ZM74.8758 38.2756H71.2336V23.1242H74.8758V38.2756ZM85.8694 34.2484C85.8694 33.7142 85.6786 33.298 85.297 32.9997C84.9224 32.7014 84.2599 32.3926 83.3094 32.0735C82.359 31.7544 81.582 31.4457 80.9784 31.1474C79.0151 30.1831 78.0335 28.858 78.0335 27.1722C78.0335 26.3327 78.2763 25.5939 78.7619 24.9557C79.2545 24.3105 79.9482 23.811 80.8432 23.4572C81.7381 23.0964 82.744 22.916 83.861 22.916C84.9502 22.916 85.9249 23.1103 86.7851 23.4988C87.6523 23.8873 88.3253 24.4423 88.8039 25.1638C89.2826 25.8783 89.522 26.697 89.522 27.6196H85.8798C85.8798 27.0022 85.689 26.5235 85.3074 26.1836C84.9328 25.8436 84.4229 25.6737 83.7777 25.6737C83.1256 25.6737 82.6088 25.8194 82.2272 26.1107C81.8526 26.3952 81.6653 26.7594 81.6653 27.2034C81.6653 27.5919 81.8734 27.9457 82.2896 28.2648C82.7059 28.577 83.4378 28.9031 84.4853 29.243C85.5329 29.576 86.3932 29.9368 87.0661 30.3253C88.7033 31.2688 89.522 32.5695 89.522 34.2276C89.522 35.5527 89.0225 36.5933 88.0235 37.3495C87.0245 38.1057 85.6543 38.4838 83.913 38.4838C82.6851 38.4838 81.5716 38.2652 80.5726 37.8282C79.5805 37.3842 78.8313 36.7806 78.3249 36.0175C77.8254 35.2474 77.5756 34.3629 77.5756 33.3639H81.2386C81.2386 34.1756 81.4467 34.7757 81.863 35.1642C82.2862 35.5457 82.9695 35.7365 83.913 35.7365C84.5166 35.7365 84.9918 35.6082 85.3387 35.3515C85.6925 35.0879 85.8694 34.7202 85.8694 34.2484ZM104.293 33.1454C104.244 34.1999 103.96 35.133 103.44 35.9446C102.919 36.7494 102.187 37.3738 101.244 37.8178C100.307 38.2618 99.2356 38.4838 98.0284 38.4838C96.0374 38.4838 94.4695 37.8351 93.3248 36.5378C92.1801 35.2405 91.6078 33.409 91.6078 31.0433V30.2941C91.6078 28.8094 91.8645 27.5121 92.3779 26.4021C92.8982 25.2852 93.6439 24.4249 94.6152 23.8214C95.5864 23.2109 96.7103 22.9056 97.9868 22.9056C99.8253 22.9056 101.303 23.3912 102.42 24.3625C103.537 25.3268 104.172 26.6588 104.324 28.3585H100.682C100.654 27.4358 100.422 26.7733 99.9848 26.3709C99.5478 25.9685 98.8818 25.7673 97.9868 25.7673C97.078 25.7673 96.412 26.1073 95.9888 26.7871C95.5656 27.467 95.3436 28.5527 95.3228 30.0443V31.1161C95.3228 32.7326 95.524 33.8877 95.9264 34.5814C96.3357 35.2752 97.0364 35.622 98.0284 35.622C98.8679 35.622 99.5096 35.4243 99.9536 35.0289C100.398 34.6335 100.633 34.0056 100.661 33.1454H104.293ZM119.491 31.0121C119.491 32.4898 119.217 33.7975 118.669 34.9352C118.121 36.073 117.34 36.9506 116.327 37.568C115.321 38.1785 114.173 38.4838 112.883 38.4838C111.592 38.4838 110.448 38.1889 109.449 37.5992C108.45 37.0026 107.669 36.1528 107.107 35.0497C106.552 33.9466 106.261 32.6805 106.233 31.2514V30.3981C106.233 28.9135 106.504 27.6058 107.045 26.475C107.593 25.3372 108.373 24.4596 109.386 23.8422C110.406 23.2247 111.565 22.916 112.862 22.916C114.145 22.916 115.29 23.2213 116.296 23.8318C117.302 24.4423 118.082 25.3129 118.637 26.4437C119.199 27.5676 119.484 28.858 119.491 30.3149V31.0121ZM115.776 30.3773C115.776 28.8719 115.522 27.7306 115.016 26.9536C114.517 26.1697 113.798 25.7777 112.862 25.7777C111.03 25.7777 110.063 27.1514 109.959 29.8986L109.948 31.0121C109.948 32.4967 110.194 33.6379 110.687 34.4357C111.18 35.2335 111.911 35.6325 112.883 35.6325C113.805 35.6325 114.517 35.2405 115.016 34.4565C115.516 33.6726 115.769 32.5453 115.776 31.0745V30.3773ZM127.664 34.1548L130.682 23.1242H134.761L129.662 38.2756H125.666L120.609 23.1242H124.657L127.664 34.1548ZM145.911 31.855H140.167V35.466H146.951V38.2756H136.514V23.1242H146.972V25.9442H140.167V29.139H145.911V31.855ZM154.709 32.9268H152.732V38.2756H149.079V23.1242H155.042C156.839 23.1242 158.243 23.5231 159.256 24.3209C160.269 25.1187 160.776 26.246 160.776 27.7029C160.776 28.7574 160.561 29.6315 160.13 30.3253C159.707 31.019 159.041 31.581 158.132 32.0111L161.296 38.1195V38.2756H157.383L154.709 32.9268ZM152.732 30.1067H155.042C155.735 30.1067 156.256 29.9264 156.603 29.5656C156.956 29.1979 157.133 28.688 157.133 28.0359C157.133 27.3838 156.956 26.8739 156.603 26.5062C156.249 26.1316 155.729 25.9442 155.042 25.9442H152.732V30.1067ZM168.668 29.7009L171.457 23.1242H175.401L170.52 32.8332V38.2756H166.816V32.8332L161.946 23.1242H165.869L168.668 29.7009Z" fill="#000E1F"/>
</g>
<path d="M115.391 97.9327L122.398 85.796H108.384L115.391 97.9327Z" fill="white" stroke="#000E1F" stroke-width="2.18051"/>
<g filter="url(#filter1_d_5360_845)">
<rect x="39.3057" y="121.018" width="152.17" height="55.7799" fill="#003D82"/>
<rect x="37.8629" y="119.575" width="155.055" height="58.6655" stroke="#000E1F" stroke-width="2.88562"/>
<path d="M76.2494 151.277C76.2009 152.332 75.9164 153.265 75.3961 154.077C74.8758 154.881 74.1439 155.506 73.2004 155.95C72.2638 156.394 71.192 156.616 69.9849 156.616C67.9938 156.616 66.4259 155.967 65.2813 154.67C64.1366 153.372 63.5642 151.541 63.5642 149.175V148.426C63.5642 146.941 63.8209 145.644 64.3343 144.534C64.8546 143.417 65.6004 142.557 66.5716 141.953C67.5429 141.343 68.6668 141.038 69.9433 141.038C71.7817 141.038 73.2594 141.523 74.3763 142.494C75.4932 143.459 76.128 144.791 76.2807 146.49H72.6385C72.6107 145.568 72.3783 144.905 71.9413 144.503C71.5042 144.1 70.8382 143.899 69.9433 143.899C69.0344 143.899 68.3684 144.239 67.9453 144.919C67.5221 145.599 67.3001 146.685 67.2793 148.176V149.248C67.2793 150.865 67.4804 152.02 67.8828 152.713C68.2921 153.407 68.9928 153.754 69.9849 153.754C70.8243 153.754 71.466 153.556 71.91 153.161C72.354 152.765 72.5899 152.138 72.6177 151.277H76.2494ZM91.4471 149.144C91.4471 150.622 91.1731 151.929 90.625 153.067C90.077 154.205 89.2965 155.083 88.2836 155.7C87.2777 156.31 86.1295 156.616 84.8392 156.616C83.5488 156.616 82.4041 156.321 81.4051 155.731C80.4061 155.135 79.6256 154.285 79.0637 153.182C78.5087 152.079 78.2173 150.813 78.1896 149.383V148.53C78.1896 147.045 78.4601 145.738 79.0013 144.607C79.5493 143.469 80.3298 142.592 81.3427 141.974C82.3625 141.357 83.521 141.048 84.8183 141.048C86.1018 141.048 87.2465 141.353 88.2524 141.964C89.2583 142.574 90.0388 143.445 90.5938 144.576C91.1557 145.7 91.4402 146.99 91.4471 148.447V149.144ZM87.7321 148.509C87.7321 147.004 87.4789 145.863 86.9724 145.086C86.4729 144.302 85.7549 143.91 84.8183 143.91C82.9868 143.91 82.0191 145.283 81.915 148.031L81.9046 149.144C81.9046 150.629 82.1509 151.77 82.6434 152.568C83.136 153.366 83.8679 153.764 84.8392 153.764C85.7618 153.764 86.4729 153.372 86.9724 152.589C87.4719 151.805 87.7252 150.677 87.7321 149.206V148.509ZM98.7673 141.256L102.149 151.798L105.521 141.256H110.329V156.408H106.666V152.869L107.019 145.627L103.356 156.408H100.942L97.2688 145.616L97.6226 152.869V156.408H93.97V141.256H98.7673ZM116.952 151.267V156.408H113.299V141.256H119.345C120.504 141.256 121.527 141.471 122.415 141.901C123.31 142.324 124 142.932 124.486 143.722C124.978 144.506 125.225 145.398 125.225 146.397C125.225 147.874 124.694 149.057 123.632 149.945C122.578 150.826 121.128 151.267 119.283 151.267H116.952ZM116.952 148.447H119.345C120.053 148.447 120.59 148.27 120.958 147.916C121.333 147.562 121.52 147.063 121.52 146.418C121.52 145.71 121.329 145.145 120.948 144.721C120.566 144.298 120.046 144.083 119.387 144.076H116.952V148.447ZM140.651 149.144C140.651 150.622 140.377 151.929 139.829 153.067C139.281 154.205 138.501 155.083 137.488 155.7C136.482 156.31 135.334 156.616 134.043 156.616C132.753 156.616 131.608 156.321 130.609 155.731C129.61 155.135 128.83 154.285 128.268 153.182C127.713 152.079 127.421 150.813 127.394 149.383V148.53C127.394 147.045 127.664 145.738 128.205 144.607C128.753 143.469 129.534 142.592 130.547 141.974C131.566 141.357 132.725 141.048 134.022 141.048C135.306 141.048 136.45 141.353 137.456 141.964C138.462 142.574 139.243 143.445 139.798 144.576C140.36 145.7 140.644 146.99 140.651 148.447V149.144ZM136.936 148.509C136.936 147.004 136.683 145.863 136.176 145.086C135.677 144.302 134.959 143.91 134.022 143.91C132.191 143.91 131.223 145.283 131.119 148.031L131.109 149.144C131.109 150.629 131.355 151.77 131.847 152.568C132.34 153.366 133.072 153.764 134.043 153.764C134.966 153.764 135.677 153.372 136.176 152.589C136.676 151.805 136.929 150.677 136.936 149.206V148.509ZM150.989 152.38C150.989 151.846 150.798 151.43 150.417 151.132C150.042 150.833 149.38 150.525 148.429 150.205C147.479 149.886 146.702 149.578 146.098 149.279C144.135 148.315 143.153 146.99 143.153 145.304C143.153 144.465 143.396 143.726 143.882 143.088C144.374 142.442 145.068 141.943 145.963 141.589C146.858 141.228 147.864 141.048 148.981 141.048C150.07 141.048 151.045 141.242 151.905 141.631C152.772 142.019 153.445 142.574 153.924 143.296C154.402 144.01 154.642 144.829 154.642 145.752H151C151 145.134 150.809 144.655 150.427 144.316C150.053 143.976 149.543 143.806 148.897 143.806C148.245 143.806 147.728 143.951 147.347 144.243C146.972 144.527 146.785 144.891 146.785 145.335C146.785 145.724 146.993 146.078 147.409 146.397C147.826 146.709 148.558 147.035 149.605 147.375C150.653 147.708 151.513 148.069 152.186 148.457C153.823 149.401 154.642 150.702 154.642 152.36C154.642 153.685 154.142 154.725 153.143 155.481C152.144 156.238 150.774 156.616 149.033 156.616C147.805 156.616 146.691 156.397 145.692 155.96C144.7 155.516 143.951 154.913 143.445 154.149C142.945 153.379 142.695 152.495 142.695 151.496H146.358C146.358 152.308 146.566 152.908 146.983 153.296C147.406 153.678 148.089 153.868 149.033 153.868C149.636 153.868 150.112 153.74 150.458 153.483C150.812 153.22 150.989 152.852 150.989 152.38ZM166.551 149.987H160.807V153.598H167.592V156.408H157.154V141.256H167.612V144.076H160.807V147.271H166.551V149.987Z" fill="white"/>
</g>
<path d="M115.391 216.065L122.398 203.928H108.384L115.391 216.065Z" fill="white" stroke="#000E1F" stroke-width="2.18051"/>
<g filter="url(#filter2_d_5360_845)">
<rect x="51.3057" y="239.15" width="128.17" height="55.7799" fill="#187ADC"/>
<rect x="49.8629" y="237.707" width="131.055" height="58.6655" stroke="#000E1F" stroke-width="2.88562"/>
<path d="M75.8823 274.54V259.388H80.7628C82.1018 259.388 83.3054 259.693 84.3738 260.304C85.4422 260.907 86.2747 261.764 86.8713 262.874C87.4749 263.977 87.7801 265.216 87.787 266.589V267.286C87.787 268.674 87.4922 269.919 86.9025 271.022C86.3198 272.118 85.4942 272.979 84.4258 273.603C83.3644 274.22 82.1781 274.533 80.8669 274.54H75.8823ZM79.5349 262.208V271.73H80.8045C81.852 271.73 82.6568 271.359 83.2187 270.616C83.7806 269.867 84.0616 268.757 84.0616 267.286V266.631C84.0616 265.167 83.7806 264.064 83.2187 263.322C82.6568 262.579 81.8381 262.208 80.7628 262.208H79.5349ZM99.6964 268.119H93.9521V271.73H100.737V274.54H90.2995V259.388H100.758V262.208H93.9521V265.403H99.6964V268.119ZM106.517 269.399V274.54H102.864V259.388H108.91C110.069 259.388 111.092 259.603 111.98 260.033C112.875 260.456 113.566 261.063 114.051 261.854C114.544 262.638 114.79 263.53 114.79 264.529C114.79 266.006 114.259 267.189 113.198 268.077C112.143 268.958 110.693 269.399 108.848 269.399H106.517ZM106.517 266.579H108.91C109.618 266.579 110.156 266.402 110.523 266.048C110.898 265.694 111.085 265.195 111.085 264.55C111.085 263.842 110.895 263.277 110.513 262.853C110.131 262.43 109.611 262.215 108.952 262.208H106.517V266.579ZM121.038 271.73H127.397V274.54H117.386V259.388H121.038V271.73ZM141.741 267.276C141.741 268.754 141.467 270.061 140.919 271.199C140.371 272.337 139.59 273.214 138.577 273.832C137.571 274.442 136.423 274.748 135.133 274.748C133.843 274.748 132.698 274.453 131.699 273.863C130.7 273.267 129.919 272.417 129.357 271.314C128.802 270.211 128.511 268.944 128.483 267.515V266.662C128.483 265.177 128.754 263.87 129.295 262.739C129.843 261.601 130.624 260.724 131.636 260.106C132.656 259.489 133.815 259.18 135.112 259.18C136.396 259.18 137.54 259.485 138.546 260.096C139.552 260.706 140.333 261.577 140.888 262.708C141.45 263.832 141.734 265.122 141.741 266.579V267.276ZM138.026 266.641C138.026 265.136 137.773 263.995 137.266 263.218C136.767 262.434 136.049 262.042 135.112 262.042C133.281 262.042 132.313 263.415 132.209 266.163L132.198 267.276C132.198 268.761 132.445 269.902 132.937 270.7C133.43 271.497 134.162 271.896 135.133 271.896C136.056 271.896 136.767 271.504 137.266 270.72C137.766 269.937 138.019 268.809 138.026 267.338V266.641ZM149.352 265.965L152.141 259.388H156.085L151.205 269.097V274.54H147.5V269.097L142.63 259.388H146.553L149.352 265.965Z" fill="#000E1F"/>
</g>
<path d="M115.391 334.197L122.398 322.06H108.384L115.391 334.197Z" fill="white" stroke="#000E1F" stroke-width="2.18051"/>
<g filter="url(#filter3_d_5360_845)">
<rect x="7.72266" y="357.282" width="215.336" height="55.8907" fill="white"/>
<rect x="6.27465" y="355.834" width="218.232" height="58.7867" stroke="black" stroke-width="2.896"/>
<path d="M45.2232 385.437C45.2232 386.92 44.9482 388.233 44.3982 389.375C43.8481 390.516 43.0648 391.397 42.0483 392.017C41.0388 392.63 39.8865 392.936 38.5915 392.936C37.2964 392.936 36.1476 392.64 35.145 392.048C34.1424 391.449 33.3592 390.597 32.7952 389.49C32.2382 388.382 31.9458 387.112 31.9179 385.678V384.821C31.9179 383.331 32.1895 382.019 32.7325 380.884C33.2826 379.742 34.0659 378.861 35.0824 378.242C36.1059 377.622 37.2686 377.312 38.5706 377.312C39.8586 377.312 41.0074 377.619 42.017 378.231C43.0266 378.844 43.8098 379.718 44.3668 380.853C44.9308 381.98 45.2162 383.276 45.2232 384.738V385.437ZM41.4948 384.8C41.4948 383.289 41.2407 382.144 40.7324 381.364C40.2311 380.578 39.5105 380.184 38.5706 380.184C36.7325 380.184 35.7612 381.563 35.6568 384.32L35.6463 385.437C35.6463 386.927 35.8935 388.073 36.3878 388.873C36.8822 389.674 37.6167 390.074 38.5915 390.074C39.5175 390.074 40.2311 389.681 40.7324 388.894C41.2337 388.107 41.4878 386.976 41.4948 385.5V384.8ZM47.7552 392.727V377.521H53.2172C55.1737 377.521 56.6602 377.88 57.6767 378.597C58.7002 379.314 59.2119 380.355 59.2119 381.719C59.2119 382.506 59.0309 383.178 58.6688 383.735C58.3068 384.292 57.7742 384.703 57.071 384.967C57.8647 385.176 58.4739 385.566 58.8986 386.137C59.3233 386.708 59.5357 387.404 59.5357 388.226C59.5357 389.716 59.0622 390.837 58.1153 391.589C57.1754 392.334 55.7794 392.713 53.9274 392.727H47.7552ZM51.4209 386.262V389.907H53.823C54.4844 389.907 54.9927 389.758 55.3477 389.458C55.7028 389.152 55.8804 388.724 55.8804 388.174C55.8804 386.906 55.2503 386.269 53.9901 386.262H51.4209ZM51.4209 383.86H53.3321C54.1328 383.853 54.7037 383.707 55.0449 383.422C55.386 383.136 55.5566 382.715 55.5566 382.158C55.5566 381.517 55.3721 381.058 55.0031 380.779C54.6341 380.494 54.0388 380.351 53.2172 380.351H51.4209V383.86ZM70.0466 388.685C70.0466 388.149 69.8551 387.731 69.4722 387.432C69.0962 387.133 68.4313 386.823 67.4775 386.503C66.5236 386.182 65.7438 385.873 65.1381 385.573C63.1677 384.605 62.1825 383.276 62.1825 381.584C62.1825 380.741 62.4262 380 62.9136 379.359C63.4079 378.712 64.1042 378.21 65.0023 377.855C65.9005 377.493 66.91 377.312 68.031 377.312C69.1241 377.312 70.1023 377.507 70.9657 377.897C71.836 378.287 72.5113 378.844 72.9917 379.568C73.4721 380.285 73.7124 381.107 73.7124 382.033H70.0571C70.0571 381.413 69.8656 380.933 69.4827 380.591C69.1067 380.25 68.5949 380.08 67.9474 380.08C67.293 380.08 66.7743 380.226 66.3913 380.518C66.0153 380.804 65.8274 381.169 65.8274 381.615C65.8274 382.005 66.0362 382.36 66.454 382.68C66.8717 382.994 67.6063 383.321 68.6576 383.662C69.7089 383.996 70.5723 384.358 71.2476 384.748C72.8908 385.695 73.7124 387 73.7124 388.664C73.7124 389.994 73.2111 391.039 72.2085 391.798C71.2059 392.556 69.8308 392.936 68.0832 392.936C66.8508 392.936 65.7334 392.717 64.7308 392.278C63.7351 391.832 62.9832 391.227 62.4749 390.461C61.9736 389.688 61.723 388.8 61.723 387.798H65.3992C65.3992 388.612 65.608 389.214 66.0258 389.604C66.4505 389.987 67.1363 390.179 68.0832 390.179C68.6889 390.179 69.1659 390.05 69.514 389.792C69.8691 389.528 70.0466 389.159 70.0466 388.685ZM85.6645 386.283H79.8996V389.907H86.7089V392.727H76.2339V377.521H86.7298V380.351H79.8996V383.557H85.6645V386.283ZM94.4941 387.359H92.5097V392.727H88.844V377.521H94.8282C96.6315 377.521 98.0414 377.921 99.0579 378.722C100.074 379.523 100.583 380.654 100.583 382.116C100.583 383.175 100.367 384.052 99.9352 384.748C99.5105 385.444 98.8421 386.008 97.93 386.44L101.105 392.57V392.727H97.1781L94.4941 387.359ZM92.5097 384.529H94.8282C95.5245 384.529 96.0467 384.348 96.3948 383.986C96.7499 383.617 96.9274 383.105 96.9274 382.45C96.9274 381.796 96.7499 381.284 96.3948 380.915C96.0397 380.539 95.5175 380.351 94.8282 380.351H92.5097V384.529ZM109.13 388.591L112.159 377.521H116.253L111.135 392.727H107.125L102.049 377.521H106.112L109.13 388.591ZM125.855 389.886H120.832L119.955 392.727H116.038L121.615 377.521H125.061L130.68 392.727H126.743L125.855 389.886ZM121.709 387.056H124.978L123.338 381.782L121.709 387.056ZM132.439 392.727V377.521H137.901C139.858 377.521 141.344 377.88 142.361 378.597C143.384 379.314 143.896 380.355 143.896 381.719C143.896 382.506 143.715 383.178 143.353 383.735C142.991 384.292 142.458 384.703 141.755 384.967C142.549 385.176 143.158 385.566 143.583 386.137C144.007 386.708 144.22 387.404 144.22 388.226C144.22 389.716 143.746 390.837 142.799 391.589C141.86 392.334 140.464 392.713 138.612 392.727H132.439ZM136.105 386.262V389.907H138.507C139.169 389.907 139.677 389.758 140.032 389.458C140.387 389.152 140.565 388.724 140.565 388.174C140.565 386.906 139.934 386.269 138.674 386.262H136.105ZM136.105 383.86H138.016C138.817 383.853 139.388 383.707 139.729 383.422C140.07 383.136 140.241 382.715 140.241 382.158C140.241 381.517 140.056 381.058 139.687 380.779C139.318 380.494 138.723 380.351 137.901 380.351H136.105V383.86ZM150.794 392.727H147.138V377.521H150.794V392.727ZM157.649 389.907H164.03V392.727H153.983V377.521H157.649V389.907ZM170.124 392.727H166.468V377.521H170.124V392.727ZM184.937 380.351H180.373V392.727H176.708V380.351H172.227V377.521H184.937V380.351ZM192.869 384.121L195.668 377.521H199.626L194.728 387.265V392.727H191.01V387.265L186.122 377.521H190.059L192.869 384.121Z" fill="#003D82"/>
</g>
<path d="M294.595 140.103L286.652 153.86L302.537 153.86L294.595 140.103Z" fill="white" stroke="#000E1F" stroke-width="2.18051"/>
<path d="M294.595 258.017L286.652 271.774L302.537 271.774L294.595 258.017Z" fill="white" stroke="#000E1F" stroke-width="2.18051"/>
<path d="M254.949 413.324L241.193 405.382L241.193 421.267L254.949 413.324Z" fill="white" stroke="#000E1F" stroke-width="2.18051"/>
<path d="M236.607 39.8881L250.364 47.8305L250.364 31.9457L236.607 39.8881Z" fill="white" stroke="#000E1F" stroke-width="2.18051"/>
<defs>
<filter id="filter0_d_5360_845" x="23.9686" y="0" width="177.393" height="67.0024" filterUnits="userSpaceOnUse" color-interpolation-filters="sRGB">
<feFlood flood-opacity="0" result="BackgroundImageFix"/>
<feColorMatrix in="SourceAlpha" type="matrix" values="0 0 0 0 0 0 0 0 0 0 0 0 0 0 0 0 0 0 127 0" result="hardAlpha"/>
<feOffset dx="-5.45129" dy="5.45129"/>
<feComposite in2="hardAlpha" operator="out"/>
<feColorMatrix type="matrix" values="0 0 0 0 0 0 0 0 0 0.239216 0 0 0 0 0.509804 0 0 0 1 0"/>
<feBlend mode="normal" in2="BackgroundImageFix" result="effect1_dropShadow_5360_845"/>
<feBlend mode="normal" in="SourceGraphic" in2="effect1_dropShadow_5360_845" result="shape"/>
</filter>
<filter id="filter1_d_5360_845" x="30.9686" y="118.132" width="163.393" height="67.0024" filterUnits="userSpaceOnUse" color-interpolation-filters="sRGB">
<feFlood flood-opacity="0" result="BackgroundImageFix"/>
<feColorMatrix in="SourceAlpha" type="matrix" values="0 0 0 0 0 0 0 0 0 0 0 0 0 0 0 0 0 0 127 0" result="hardAlpha"/>
<feOffset dx="-5.45129" dy="5.45129"/>
<feComposite in2="hardAlpha" operator="out"/>
<feColorMatrix type="matrix" values="0 0 0 0 0 0 0 0 0 0.239216 0 0 0 0 0.509804 0 0 0 1 0"/>
<feBlend mode="normal" in2="BackgroundImageFix" result="effect1_dropShadow_5360_845"/>
<feBlend mode="normal" in="SourceGraphic" in2="effect1_dropShadow_5360_845" result="shape"/>
</filter>
<filter id="filter2_d_5360_845" x="42.9686" y="236.264" width="139.393" height="67.0024" filterUnits="userSpaceOnUse" color-interpolation-filters="sRGB">
<feFlood flood-opacity="0" result="BackgroundImageFix"/>
<feColorMatrix in="SourceAlpha" type="matrix" values="0 0 0 0 0 0 0 0 0 0 0 0 0 0 0 0 0 0 127 0" result="hardAlpha"/>
<feOffset dx="-5.45129" dy="5.45129"/>
<feComposite in2="hardAlpha" operator="out"/>
<feColorMatrix type="matrix" values="0 0 0 0 0 0 0 0 0 0.239216 0 0 0 0 0.509804 0 0 0 1 0"/>
<feBlend mode="normal" in2="BackgroundImageFix" result="effect1_dropShadow_5360_845"/>
<feBlend mode="normal" in="SourceGraphic" in2="effect1_dropShadow_5360_845" result="shape"/>
</filter>
<filter id="filter3_d_5360_845" x="-1.14441e-05" y="354.386" width="225.955" height="66.5094" filterUnits="userSpaceOnUse" color-interpolation-filters="sRGB">
<feFlood flood-opacity="0" result="BackgroundImageFix"/>
<feColorMatrix in="SourceAlpha" type="matrix" values="0 0 0 0 0 0 0 0 0 0 0 0 0 0 0 0 0 0 127 0" result="hardAlpha"/>
<feOffset dx="-4.82667" dy="4.82667"/>
<feComposite in2="hardAlpha" operator="out"/>
<feColorMatrix type="matrix" values="0 0 0 0 0 0 0 0 0 0.317647 0 0 0 0 0.678431 0 0 0 1 0"/>
<feBlend mode="normal" in2="BackgroundImageFix" result="effect1_dropShadow_5360_845"/>
<feBlend mode="normal" in="SourceGraphic" in2="effect1_dropShadow_5360_845" result="shape"/>
</filter>
<linearGradient id="paint0_linear_5360_845" x1="-14.706" y1="93.6896" x2="250.862" y2="-21.6617" gradientUnits="userSpaceOnUse">
<stop stop-color="#B2D3F3"/>
<stop offset="0.509615" stop-color="#0051AD"/>
<stop offset="1" stop-color="#B2D3F3"/>
</linearGradient>
</defs>
</svg>
