<svg width="200" height="38" viewBox="0 0 200 38" fill="none" xmlns="http://www.w3.org/2000/svg">
<g clip-path="url(#clip0_3153_69)">
<path d="M0 7.9C0 3.83 3.31492 0.5 7.36648 0.5H29.4659C33.5543 0.5 36.8324 3.83 36.8324 7.9V30.1C36.8324 34.17 33.5175 37.5 29.4659 37.5H7.36648C3.27808 37.5 0 34.17 0 30.1V7.9Z" fill="white"/>
<path d="M23.1675 24.846C20.8102 25.882 18.2319 25.475 17.2375 25.105C17.2375 25.327 17.2375 26.067 17.2006 27.14C17.1638 28.176 16.8323 28.842 16.6482 29.064C16.6482 29.73 16.6482 31.173 16.6113 31.654C16.5377 32.135 16.2062 32.542 16.0588 32.69H14.5855C14.7329 32.024 15.2117 31.617 15.4327 31.469C15.58 30.1 15.3222 28.916 15.1749 28.509C15.0275 29.027 14.696 30.211 14.4382 30.877C14.1804 31.543 13.7752 32.135 13.6279 32.357H12.5598C12.5229 31.691 12.8544 31.469 13.1122 31.469C13.2227 31.284 13.4806 30.618 13.6647 29.73C13.8489 28.805 13.5911 27.066 13.4437 26.326V23.958C11.7126 23.033 11.0865 22.108 10.6445 21.035C10.313 20.184 10.3866 18.926 10.4971 18.408C10.3866 18.223 10.092 17.705 9.94466 16.965C9.79733 15.966 9.87099 15.263 9.94466 14.893C9.83416 14.782 9.61316 14.227 9.61316 12.858C9.61316 11.489 10.0183 10.786 10.2025 10.601V10.009C9.46583 9.972 8.69235 9.639 8.25036 9.195C7.80838 8.751 8.13987 8.085 8.39769 7.863C8.65552 7.641 8.95018 7.826 9.3185 7.715C9.68683 7.604 10.0183 7.493 10.1657 7.16C10.313 6.901 10.0552 5.791 9.90782 5.31C10.5708 5.384 10.976 5.976 11.0865 6.235V5.31C11.8968 5.68 13.3332 6.642 13.8489 8.64C14.254 10.268 14.5119 13.672 14.5855 15.152C16.6482 15.152 19.2633 14.856 21.6574 15.374C23.8305 15.855 24.7881 16.817 25.9299 16.817C27.0717 16.817 27.6979 16.151 28.5082 16.706C29.3185 17.261 29.7605 18.778 29.65 19.925C29.5763 20.85 28.8765 21.146 28.5082 21.183C28.0662 22.626 28.5082 24.032 28.766 24.513V26.585C28.8765 26.77 29.1343 27.325 29.1343 28.102C29.1343 28.879 28.8765 29.434 28.766 29.582C28.987 30.803 28.6924 32.061 28.5082 32.542H27.0349C27.2191 32.098 27.5137 31.987 27.6242 31.987C27.882 30.618 27.6979 29.36 27.5874 28.916C26.7771 28.435 26.2246 27.584 26.0773 27.214C26.0773 27.51 26.0773 28.398 25.7089 29.36C25.3774 30.322 24.8618 30.877 24.6408 31.062V32.209H23.1675C23.1675 31.506 23.5726 31.358 23.7568 31.395C24.0146 30.951 24.604 30.248 24.604 28.879C24.604 27.51 23.7936 27.177 23.2043 26.141C22.9097 25.66 23.057 25.031 23.1675 24.772V24.846Z" fill="#00142B"/>
<path fill-rule="evenodd" clip-rule="evenodd" d="M78.2319 26.326C77.9373 26.807 77.5321 27.214 77.0533 27.51C76.3167 27.954 75.359 28.176 74.1804 28.176C73.0017 28.176 72.2651 27.991 71.4916 27.658C70.755 27.288 70.1657 26.807 69.7973 26.215C69.3922 25.623 69.208 24.92 69.208 24.18C69.208 23.44 69.3922 22.7 69.7605 22.108C70.1657 21.516 70.7918 21.072 71.6021 20.739C72.4493 20.406 73.5542 20.221 74.8802 20.221H77.9373C77.9373 19.407 77.6795 18.778 77.1638 18.297C76.685 17.853 75.9115 17.594 74.8434 17.594C73.7752 17.594 73.4437 17.705 72.7439 17.927C72.0809 18.149 71.4916 18.445 71.0128 18.815L69.6132 16.151C70.3498 15.633 71.197 15.263 72.2283 14.967C73.2596 14.671 74.2909 14.56 75.359 14.56C77.3848 14.56 78.9686 15.041 80.0736 15.966C81.1785 16.928 81.7679 18.408 81.7679 20.406V27.954H78.1583V26.326H78.2319ZM77.9741 22.441H75.3222C74.4014 22.441 73.7752 22.589 73.4437 22.885C73.1122 23.181 72.9649 23.551 72.9649 23.995C72.9649 24.439 73.1491 24.883 73.5174 25.179C73.9226 25.475 74.4382 25.586 75.138 25.586C75.8378 25.586 76.3535 25.438 76.8692 25.142C77.3848 24.846 77.7531 24.365 77.9741 23.81V22.478V22.441Z" fill="white"/>
<path d="M105.193 15.189C104.383 14.782 103.462 14.56 102.394 14.56C101.326 14.56 99.9999 14.856 99.0054 15.485C98.4529 15.818 97.9741 16.262 97.6058 16.743C97.3111 16.262 96.906 15.855 96.4272 15.522C95.5063 14.893 94.4382 14.597 93.2227 14.597C92.0073 14.597 91.1601 14.819 90.313 15.3C89.8342 15.559 89.3922 15.892 89.0607 16.299V14.782H85.3774V27.991H89.2448V21.368C89.2448 20.591 89.3553 19.925 89.6132 19.444C89.871 18.926 90.2025 18.556 90.6445 18.297C91.0865 18.038 91.6021 17.89 92.1546 17.89C92.9649 17.89 93.5911 18.149 93.9962 18.667C94.4382 19.185 94.6592 19.962 94.6592 21.035V27.991H98.5266V21.368C98.5266 20.591 98.6371 19.925 98.8949 19.444C99.1528 18.926 99.4843 18.556 99.9262 18.297C100.368 18.038 100.884 17.89 101.436 17.89C102.247 17.89 102.873 18.149 103.315 18.667C103.757 19.185 103.978 19.962 103.978 21.035V27.991H107.845V20.443C107.845 19.111 107.587 18.001 107.109 17.15C106.63 16.299 106.004 15.633 105.193 15.226V15.189Z" fill="white"/>
<path fill-rule="evenodd" clip-rule="evenodd" d="M119.484 26.326C119.19 26.807 118.785 27.214 118.306 27.51C117.569 27.954 116.611 28.176 115.433 28.176C114.254 28.176 113.518 27.991 112.744 27.658C112.007 27.288 111.418 26.807 111.05 26.215C110.645 25.623 110.46 24.92 110.46 24.18C110.46 23.44 110.645 22.7 111.013 22.108C111.418 21.516 112.044 21.072 112.855 20.739C113.702 20.406 114.807 20.221 116.133 20.221H119.19C119.19 19.407 118.932 18.778 118.416 18.297C117.937 17.853 117.164 17.594 116.096 17.594C115.028 17.594 114.696 17.705 113.996 17.927C113.333 18.149 112.744 18.445 112.265 18.815L110.866 16.151C111.602 15.633 112.449 15.263 113.481 14.967C114.512 14.671 115.543 14.56 116.611 14.56C118.637 14.56 120.221 15.041 121.326 15.966C122.431 16.928 123.02 18.408 123.02 20.406V27.954H119.411V26.326H119.484ZM119.263 22.441H116.611C115.691 22.441 115.065 22.589 114.733 22.885C114.402 23.181 114.254 23.551 114.254 23.995C114.254 24.439 114.438 24.883 114.807 25.179C115.212 25.475 115.727 25.586 116.427 25.586C117.127 25.586 117.643 25.438 118.158 25.142C118.674 24.846 119.042 24.365 119.263 23.81V22.478V22.441Z" fill="white"/>
<path d="M131.455 27.621C132.597 28.028 133.849 28.25 135.212 28.25C136.575 28.25 138.085 27.991 139.3 27.473C140.516 26.955 141.547 26.178 142.357 25.179L139.779 22.811C139.19 23.514 138.527 23.995 137.79 24.365C137.053 24.698 136.28 24.846 135.396 24.846C134.512 24.846 133.849 24.698 133.149 24.439C132.486 24.18 131.897 23.81 131.381 23.292C130.902 22.811 130.497 22.219 130.203 21.553C129.945 20.887 129.797 20.147 129.797 19.333C129.797 18.519 129.945 17.779 130.203 17.113C130.497 16.447 130.866 15.855 131.381 15.374C131.86 14.893 132.449 14.523 133.149 14.227C133.812 13.968 134.586 13.82 135.396 13.82C136.206 13.82 137.053 14.005 137.79 14.338C138.527 14.671 139.19 15.152 139.779 15.818L142.357 13.45C141.547 12.451 140.516 11.711 139.3 11.193C138.085 10.675 136.722 10.416 135.249 10.416C133.775 10.416 132.634 10.638 131.492 11.082C130.35 11.489 129.355 12.118 128.508 12.932C127.661 13.746 126.998 14.671 126.519 15.744C126.041 16.817 125.82 18.001 125.82 19.296C125.82 20.591 126.041 21.775 126.519 22.848C126.998 23.921 127.661 24.883 128.508 25.66C129.355 26.474 130.35 27.066 131.492 27.51L131.455 27.621Z" fill="white"/>
<path fill-rule="evenodd" clip-rule="evenodd" d="M154.807 27.251C155.912 27.843 157.164 28.139 158.6 28.139C160.037 28.139 161.252 27.843 162.357 27.251C163.462 26.659 164.346 25.845 164.972 24.846C165.599 23.81 165.93 22.663 165.93 21.331C165.93 19.999 165.599 18.815 164.972 17.816C164.346 16.817 163.462 16.003 162.357 15.448C161.252 14.856 160 14.56 158.6 14.56C157.201 14.56 155.912 14.856 154.807 15.448C153.702 16.003 152.855 16.817 152.192 17.853C151.565 18.852 151.234 20.036 151.234 21.368C151.234 22.7 151.565 23.847 152.192 24.883C152.818 25.882 153.702 26.696 154.807 27.288V27.251ZM160.331 24.587C159.816 24.883 159.227 25.031 158.6 25.031C157.974 25.031 157.385 24.883 156.869 24.587C156.354 24.291 155.948 23.884 155.617 23.329C155.322 22.774 155.175 22.108 155.175 21.368C155.175 20.628 155.322 19.962 155.617 19.407C155.948 18.852 156.354 18.445 156.869 18.149C157.385 17.853 157.974 17.705 158.6 17.705C159.227 17.705 159.816 17.853 160.331 18.149C160.847 18.445 161.252 18.852 161.547 19.407C161.842 19.962 161.989 20.591 161.989 21.368C161.989 22.145 161.842 22.774 161.547 23.329C161.252 23.884 160.847 24.291 160.331 24.587Z" fill="white"/>
<path d="M171.123 27.51C172.007 27.917 173.002 28.139 174.107 28.139C175.212 28.139 176.059 27.917 176.943 27.436C177.459 27.177 177.901 26.807 178.269 26.363V27.917H181.952V14.708H178.085V21.22C178.085 22.034 177.937 22.7 177.68 23.218C177.422 23.736 177.053 24.143 176.575 24.402C176.096 24.661 175.58 24.772 174.991 24.772C174.144 24.772 173.481 24.513 173.002 23.995C172.523 23.477 172.302 22.663 172.302 21.553V14.671H168.435V22.145C168.435 23.514 168.656 24.624 169.171 25.512C169.65 26.363 170.313 27.029 171.16 27.436L171.123 27.51Z" fill="white"/>
<path fill-rule="evenodd" clip-rule="evenodd" d="M187.808 27.325C188.803 27.88 189.945 28.176 191.197 28.176C192.449 28.176 193.37 27.917 194.18 27.436C194.622 27.177 195.028 26.844 195.359 26.437V27.954H199.042V9.75H195.175V16.114C194.88 15.781 194.512 15.485 194.144 15.263C193.296 14.782 192.302 14.523 191.197 14.523C190.092 14.523 188.803 14.819 187.808 15.374C186.814 15.929 186.004 16.706 185.414 17.742C184.825 18.741 184.53 19.962 184.53 21.331C184.53 22.7 184.825 23.884 185.414 24.92C186.004 25.919 186.814 26.733 187.808 27.288V27.325ZM193.591 24.587C193.075 24.883 192.523 25.031 191.897 25.031C191.271 25.031 190.681 24.883 190.166 24.587C189.65 24.291 189.245 23.884 188.913 23.329C188.619 22.774 188.471 22.108 188.471 21.368C188.471 20.628 188.619 19.962 188.913 19.407C189.245 18.852 189.65 18.445 190.166 18.149C190.681 17.853 191.271 17.705 191.897 17.705C192.523 17.705 193.112 17.853 193.591 18.149C194.107 18.445 194.512 18.852 194.807 19.407C195.138 19.962 195.285 20.591 195.285 21.368C195.285 22.145 195.138 22.774 194.807 23.329C194.512 23.884 194.107 24.291 193.591 24.587Z" fill="white"/>
<path d="M47.9189 10.786V27.954H60.6261V24.698H51.9337V10.786H47.9189Z" fill="white"/>
<path d="M62.615 9.75V27.954H66.4824V9.75H62.615Z" fill="white"/>
<path d="M144.788 9.75V27.954H148.656V9.75H144.788Z" fill="white"/>
</g>
<defs>
<clipPath id="clip0_3153_69">
<rect width="200" height="37" fill="white" transform="translate(0 0.5)"/>
</clipPath>
</defs>
</svg>
